<svg width="84" height="70" viewBox="0 0 84 70" fill="none" xmlns="http://www.w3.org/2000/svg">
<path fill-rule="evenodd" clip-rule="evenodd" d="M9.1875 10.8396C12.1888 9.10418 15.68 8.08334 19.3958 8.08334C30.6658 8.08334 39.8125 17.23 39.8125 28.5C39.8125 39.77 30.6658 48.9167 19.3958 48.9167C15.68 48.9167 12.1888 47.8958 9.1875 46.1604C15.2921 42.6283 19.3958 36.0542 19.3958 28.5C19.3958 20.9458 15.2921 14.3717 9.1875 10.8396ZM35.7292 28.5C35.7292 19.4963 28.3996 12.1667 19.3958 12.1667C18.7017 12.1667 18.0075 12.2075 17.3337 12.3096C21.2333 16.7196 23.4792 22.4771 23.4792 28.5C23.4792 34.5229 21.2333 40.2804 17.3337 44.6904C18.0075 44.7925 18.7017 44.8333 19.3958 44.8333C28.3996 44.8333 35.7292 37.5038 35.7292 28.5Z" fill="white" fill-opacity="0.54"/>
<path fill-rule="evenodd" clip-rule="evenodd" d="M29.5831 23.45C33.2274 16.45 40.5744 11.6667 49 11.6667C59.6123 11.6667 68.4461 19.2208 70.4577 29.2833C78.0088 29.8083 83.9854 36.05 83.9854 43.75C83.9854 51.8 77.4548 58.3333 69.4082 58.3333H31.5073C21.8572 58.3333 14.0146 50.4875 14.0146 40.8333C14.0146 31.8208 20.8367 24.3833 29.5831 23.45ZM64.7434 30.4208C63.2565 22.925 56.6093 17.5 49 17.5C42.9941 17.5 37.5422 20.825 34.8017 26.1625L33.344 28.9333L30.2244 29.2542C24.3061 29.8667 19.8454 34.8542 19.8454 40.8333C19.8454 47.2792 25.0641 52.5 31.5072 52.5H69.4081C74.2186 52.5 78.1545 48.5625 78.1545 43.75C78.1545 39.2292 74.5976 35.4375 70.0495 35.1167L65.618 34.7958L64.7434 30.4208Z" fill="white" fill-opacity="0.54"/>
</svg>
