<svg width="48" height="48" viewBox="0 0 48 48" fill="none" xmlns="http://www.w3.org/2000/svg">
<g id="brightness_2_24px">
<path id="icon/image/brightness_2_24px" fill-rule="evenodd" clip-rule="evenodd" d="M9 6.7C11.94 5 15.36 4 19 4C30.04 4 39 12.96 39 24C39 35.04 30.04 44 19 44C15.36 44 11.94 43 9 41.3C14.98 37.84 19 31.4 19 24C19 16.6 14.98 10.16 9 6.7ZM35 24C35 15.18 27.82 8 19 8C18.32 8 17.64 8.04 16.98 8.14C20.8 12.46 23 18.1 23 24C23 29.9 20.8 35.54 16.98 39.86C17.64 39.96 18.32 40 19 40C27.82 40 35 32.82 35 24Z" fill="white"/>
</g>
</svg>
