<svg width="95" height="73" viewBox="0 0 95 73" fill="none" xmlns="http://www.w3.org/2000/svg">
<path fill-rule="evenodd" clip-rule="evenodd" d="M28.875 2.75623H34.125V10.5H28.875V2.75623ZM13.02 9.31873L17.745 14.0175L14.0175 17.7187L9.31872 13.02L13.02 9.31873ZM10.5 28.875H2.625V34.125H10.5V28.875ZM53.675 12.999L49.9811 9.30559L45.2853 14.0015L48.9789 17.6951L53.675 12.999ZM45.255 48.9825L49.9537 53.7075L53.655 50.0062L48.93 45.3075L45.255 48.9825ZM60.375 28.875H52.5V34.125H60.375V28.875ZM31.5 15.75C22.8113 15.75 15.75 22.8113 15.75 31.5C15.75 40.1888 22.8113 47.25 31.5 47.25C40.1888 47.25 47.25 40.1888 47.25 31.5C47.25 22.8113 40.1888 15.75 31.5 15.75ZM21 31.5C21 37.3013 25.6987 42 31.5 42C37.3013 42 42 37.3013 42 31.5C42 25.6988 37.3013 21 31.5 21C25.6987 21 21 25.6988 21 31.5ZM34.125 52.5V60.2438H28.875V52.5H34.125ZM13.02 53.6812L9.31872 49.98L14.0175 45.255L17.7187 48.9562L13.02 53.6812Z" fill="black" fill-opacity="0.54"/>
<path fill-rule="evenodd" clip-rule="evenodd" d="M40.5831 26.45C44.2274 19.45 51.5744 14.6667 60 14.6667C70.6123 14.6667 79.4461 22.2208 81.4577 32.2833C89.0088 32.8083 94.9854 39.05 94.9854 46.75C94.9854 54.8 88.4548 61.3333 80.4082 61.3333H42.5073C32.8572 61.3333 25.0146 53.4875 25.0146 43.8333C25.0146 34.8208 31.8367 27.3833 40.5831 26.45ZM75.7434 33.4208C74.2565 25.925 67.6093 20.5 60 20.5C53.9941 20.5 48.5422 23.825 45.8017 29.1625L44.344 31.9333L41.2244 32.2542C35.3061 32.8667 30.8454 37.8542 30.8454 43.8333C30.8454 50.2792 36.0641 55.5 42.5072 55.5H80.4081C85.2186 55.5 89.1545 51.5625 89.1545 46.75C89.1545 42.2292 85.5976 38.4375 81.0495 38.1167L76.618 37.7958L75.7434 33.4208Z" fill="black" fill-opacity="0.54"/>
</svg>
