<svg width="76" height="61" viewBox="0 0 76 61" fill="none" xmlns="http://www.w3.org/2000/svg">
<path fill-rule="evenodd" clip-rule="evenodd" d="M41.972 5.51713L42.2372 5.45255C46.1824 17.5604 57.7314 25.1352 69.8089 23.5363L69.8704 23.8154C57.7962 28.1642 50.4615 41.3019 52.9535 54.6541L52.9245 54.6612C49.4238 40.9095 36.361 32.3415 23.0748 35.0826L23.068 35.0518C35.5691 31.5337 43.5661 18.8309 41.972 5.51713Z" fill="black"/>
<path fill-rule="evenodd" clip-rule="evenodd" d="M12.1847 5.09319C14.2285 11.1361 20.0574 14.8611 26.1004 13.9861L26.1328 14.1256C20.1067 16.3785 16.504 23.0064 17.8265 29.6817L17.812 29.6854C15.9819 22.8161 9.38895 18.6027 2.7466 20.0574L2.74303 20.042C8.9877 18.2028 12.9247 11.7887 12.0523 5.12716L12.1847 5.09319Z" fill="black"/>
</svg>
